<?xml version="1.0" standalone="no"?>
<!DOCTYPE svg PUBLIC "-//W3C//DTD SVG 20010904//EN"
 "http://www.w3.org/TR/2001/REC-SVG-20010904/DTD/svg10.dtd">
<svg version="1.0" xmlns="http://www.w3.org/2000/svg"
 width="539.000000pt" height="539.000000pt" viewBox="0 0 539.000000 539.000000"
 preserveAspectRatio="xMidYMid meet">
<metadata>
Created by potrace 1.14, written by Peter Selinger 2001-2017
</metadata>
<g transform="translate(0.000000,539.000000) scale(0.100000,-0.100000)"
fill="#000000" stroke="none">
<path d="M2529 5046 c-2 -2 -38 -6 -79 -9 -90 -8 -268 -40 -367 -66 -201 -54
-435 -154 -608 -261 -287 -176 -550 -428 -729 -701 -16 -24 -37 -55 -46 -69
-9 -14 -32 -54 -51 -90 -18 -36 -35 -67 -38 -70 -4 -3 -7 -11 -9 -18 -5 -27
-40 -81 -47 -74 -5 4 -5 2 -2 -4 7 -12 -36 -128 -44 -120 -2 2 -5 -10 -6 -27
-1 -17 -7 -34 -14 -37 -6 -4 -10 -10 -10 -14 3 -21 0 -37 -6 -33 -5 3 -9 -9
-10 -27 -1 -17 -7 -44 -14 -61 -16 -39 -14 -33 -23 -87 -5 -26 -12 -46 -16
-43 -5 3 -12 0 -16 -6 -5 -8 -3 -9 6 -4 9 6 11 -2 5 -36 -15 -102 -17 -109
-29 -102 -7 4 -6 1 1 -9 7 -8 10 -18 7 -21 -6 -6 -10 -38 -15 -124 -1 -27 -6
-40 -13 -36 -6 4 -5 0 1 -9 7 -8 10 -18 7 -21 -7 -7 -7 -227 0 -305 4 -39 2
-51 -7 -45 -8 4 -7 1 1 -10 8 -9 15 -39 15 -67 1 -27 6 -50 11 -50 5 0 3 -7
-4 -15 -10 -12 -10 -15 0 -15 8 0 11 -9 8 -25 -3 -13 -1 -22 3 -19 5 3 7 -9 5
-25 -2 -17 1 -31 5 -31 5 0 9 -10 9 -22 1 -13 7 -40 14 -60 12 -33 11 -38 -3
-41 -15 -4 -15 -5 0 -6 17 -1 43 -76 33 -93 -3 -4 -2 -8 3 -8 4 0 14 -19 21
-42 17 -56 58 -160 88 -224 29 -61 30 -71 7 -53 -16 13 -17 12 -4 -3 7 -10 17
-16 21 -13 15 9 22 -15 9 -31 -9 -12 -9 -13 2 -9 19 7 71 -86 63 -112 -5 -15
-4 -15 5 -3 10 13 15 8 12 -12 0 -5 4 -8 10 -8 5 0 8 -4 5 -9 -3 -5 1 -11 9
-15 8 -3 15 -10 15 -16 0 -6 -5 -8 -12 -4 -7 4 -8 3 -4 -5 4 -6 11 -9 16 -6 5
3 11 1 15 -5 3 -5 0 -10 -7 -11 -7 0 -2 -5 12 -10 18 -7 21 -12 11 -18 -9 -6
-7 -10 9 -14 15 -4 21 -11 17 -21 -4 -9 -3 -15 1 -13 4 1 8 -2 10 -8 2 -5 10
-14 18 -18 8 -5 12 -12 9 -18 -4 -5 1 -9 10 -9 9 0 18 -12 22 -31 4 -23 8 -27
15 -17 7 9 8 7 5 -10 -3 -12 -1 -19 4 -16 12 7 41 -15 34 -26 -3 -5 3 -11 12
-15 21 -7 129 -133 126 -146 -2 -4 4 -6 12 -3 10 4 15 0 15 -11 0 -9 5 -13 10
-10 6 3 10 -2 10 -11 0 -10 3 -14 6 -11 4 4 14 -2 23 -12 9 -9 28 -26 44 -35
15 -10 27 -25 27 -33 0 -8 4 -12 9 -9 5 3 14 -1 20 -8 8 -9 8 -17 2 -20 -5 -3
-11 -1 -13 6 -3 8 -6 6 -10 -4 -7 -17 7 -19 30 -4 15 9 85 -40 77 -55 -3 -5 1
-6 9 -3 9 3 16 1 16 -5 0 -6 6 -11 13 -11 19 -1 87 -56 79 -65 -4 -5 -2 -5 5
-2 13 8 43 -1 43 -13 0 -5 -10 -6 -22 -4 -21 4 -21 4 -3 -5 11 -4 24 -6 28 -4
11 7 57 -17 57 -29 0 -5 -4 -6 -10 -3 -5 3 -10 1 -10 -4 0 -14 17 -14 25 -1 4
6 11 8 16 4 5 -3 7 -10 4 -15 -3 -5 2 -6 11 -2 12 4 15 3 10 -6 -5 -8 -3 -11
6 -9 19 4 99 -33 92 -43 -3 -5 2 -6 10 -3 9 3 16 1 16 -6 0 -6 4 -9 9 -6 5 3
34 -6 65 -20 32 -14 64 -27 73 -28 9 -2 22 -11 29 -21 8 -10 14 -14 14 -8 0 7
17 5 48 -6 26 -10 46 -22 45 -28 -1 -5 4 -10 12 -10 8 0 12 4 9 9 -7 11 -3 10
45 -7 23 -8 43 -14 46 -15 3 0 6 0 8 -1 1 0 16 -3 32 -5 47 -7 55 -12 55 -34
0 -14 -4 -19 -12 -14 -7 4 -8 3 -4 -5 10 -15 26 -4 26 18 0 14 6 17 24 14 14
-3 27 -13 29 -22 4 -14 5 -14 6 2 1 17 12 22 25 10 3 -4 28 -9 54 -11 26 -2
50 -9 54 -15 5 -8 8 -8 8 -1 0 7 18 8 57 3 42 -6 62 -14 75 -31 15 -18 17 -19
11 -4 -4 13 -3 17 5 12 8 -5 10 -1 5 10 -5 13 -3 15 7 9 8 -5 49 -9 92 -8 63
0 78 -2 81 -16 4 -14 5 -14 6 2 1 20 46 24 54 5 4 -10 6 -10 6 0 1 6 6 12 12
12 5 0 7 -5 4 -10 -3 -6 -1 -10 4 -10 6 0 11 7 11 16 0 13 3 14 15 4 8 -6 13
-17 12 -22 -1 -6 5 -13 13 -15 9 -3 11 -1 5 4 -5 4 -11 16 -13 25 -2 12 3 16
17 13 10 -2 35 0 54 5 26 5 37 4 41 -6 3 -7 1 -15 -5 -18 -5 -2 -4 -3 3 -2 7
2 12 10 10 18 -1 8 4 15 10 15 26 1 103 15 112 20 5 4 6 1 2 -5 -4 -7 -2 -12
3 -12 6 0 11 4 11 9 0 5 18 13 40 19 22 5 37 6 34 1 -3 -5 0 -9 5 -9 6 0 11 4
11 9 0 5 10 11 23 14 12 3 49 13 82 22 84 24 89 24 102 6 10 -14 11 -13 7 4
-4 18 4 24 55 42 34 11 58 16 55 9 -3 -6 0 -4 8 5 13 16 56 35 71 31 4 -1 7 2
7 6 0 14 48 33 55 22 4 -6 12 -10 18 -10 7 0 6 4 -3 10 -13 9 -7 14 13 11 4 0
7 4 7 10 0 8 5 7 15 -1 9 -7 18 -10 22 -6 3 3 1 6 -5 6 -7 0 -12 5 -12 12 0 6
3 9 6 5 4 -3 13 1 22 9 11 11 17 12 22 4 5 -7 9 -4 13 11 5 19 8 20 22 9 13
-11 15 -10 9 4 -5 12 -2 15 12 9 10 -4 15 -2 11 4 -9 14 33 34 61 29 13 -3 20
-1 17 5 -4 5 -11 7 -16 4 -5 -4 -9 -1 -9 4 0 6 6 11 13 11 8 0 27 11 42 24 21
19 33 22 46 15 26 -13 36 -11 15 4 -17 13 -17 14 7 29 19 13 27 14 36 5 9 -9
11 -8 6 4 -3 9 1 22 10 29 8 7 15 10 15 7 0 -3 21 14 48 39 26 24 53 42 61 39
8 -3 11 0 8 9 -5 13 26 33 44 28 4 -1 6 6 5 16 -1 12 6 16 24 14 17 -1 21 1
12 7 -10 6 8 30 71 94 46 47 87 93 91 102 4 10 12 15 22 11 8 -3 12 -2 9 4 -8
13 75 121 88 113 6 -3 7 -1 3 6 -8 13 12 44 23 37 4 -3 8 5 8 16 1 12 6 24 11
27 5 3 11 14 15 24 4 11 12 15 18 11 8 -4 9 -3 5 5 -9 15 12 43 26 35 6 -4 8
2 3 15 -5 15 1 28 22 48 15 14 22 23 16 19 -18 -10 -16 -2 7 24 11 12 17 26
15 30 -3 4 2 13 10 20 8 7 12 17 8 23 -4 6 2 8 18 4 23 -6 23 -5 5 8 -11 8
-14 15 -7 15 7 0 9 5 5 12 -5 8 -2 9 11 4 15 -5 16 -4 5 9 -10 12 -10 15 3 15
9 0 19 4 22 10 3 6 -1 7 -9 4 -9 -3 -16 -1 -16 5 0 6 5 11 10 11 6 0 10 7 10
15 0 8 4 15 10 15 5 0 7 7 4 15 -4 8 -1 15 5 15 6 0 10 3 10 8 -1 4 0 9 1 12
1 3 3 12 5 20 2 8 17 53 34 100 17 47 30 93 31 103 0 11 4 15 12 11 7 -4 8 -3
4 5 -9 13 2 73 12 67 6 -4 8 9 12 77 1 9 4 16 8 13 4 -2 7 10 8 27 0 35 12
130 24 193 4 23 8 126 8 229 1 134 5 192 14 204 12 15 11 15 -6 1 -18 -13 -19
-13 -14 0 3 8 2 24 -2 35 -4 11 -3 30 1 43 6 15 5 21 -1 17 -6 -4 -11 10 -12
34 -1 23 -2 49 -2 59 -1 9 -5 20 -10 24 -6 4 -4 14 4 25 8 10 10 14 5 10 -9
-8 -29 59 -60 198 -3 12 -13 45 -23 75 -11 30 -20 58 -20 63 -1 4 -9 23 -17
43 -8 20 -15 41 -15 46 0 5 -7 20 -16 33 -9 14 -13 32 -10 42 4 10 4 14 0 11
-3 -4 -30 39 -59 95 -60 116 -72 139 -102 186 -12 19 -19 39 -16 45 3 6 3 8
-2 4 -11 -10 -87 101 -79 114 4 6 2 8 -3 5 -14 -9 -37 19 -27 34 4 8 3 9 -4 5
-6 -4 -19 5 -29 21 -44 68 -220 243 -348 347 -346 282 -764 459 -1198 510
-100 11 -418 20 -428 12z m985 -1478 c-4 -6 -3 -8 3 -5 6 4 28 -14 49 -40 22
-26 45 -53 52 -60 12 -11 12 -16 0 -31 -11 -15 -11 -16 3 -4 14 11 22 4 57
-50 67 -104 137 -252 126 -269 -3 -5 -1 -9 5 -9 10 0 27 -66 20 -73 -2 -2 1
-10 7 -18 11 -13 17 -44 33 -169 9 -72 3 -275 -9 -275 0 0 -3 -22 -5 -50 -3
-27 -9 -51 -15 -53 -6 -2 -8 -8 -4 -13 7 -12 -21 -107 -57 -193 -33 -78 -127
-236 -140 -236 -5 0 -9 -6 -9 -12 0 -21 -110 -137 -194 -205 -218 -176 -467
-265 -746 -265 -382 -1 -706 157 -948 462 -29 36 -52 70 -52 77 0 7 -3 13 -8
13 -7 0 -84 146 -102 195 -58 152 -79 259 -82 425 -2 72 11 230 19 243 3 4 7
22 10 39 12 76 96 288 114 288 6 0 7 5 3 12 -4 6 1 17 11 25 11 7 16 13 12 13
-4 0 9 25 29 55 20 30 41 55 46 55 5 0 6 5 3 10 -3 6 -2 10 4 10 5 0 12 9 16
19 3 11 15 23 26 26 10 4 17 10 14 15 -3 5 -1 11 5 15 5 3 10 1 10 -4 0 -6 4
-10 9 -9 5 2 29 -17 54 -42 24 -25 90 -88 146 -140 76 -70 98 -96 86 -100 -9
-3 -16 -10 -16 -15 0 -6 -6 -10 -12 -9 -7 1 -13 -10 -14 -24 0 -14 -8 -29 -17
-34 -9 -5 -16 -16 -16 -23 0 -8 -5 -15 -12 -15 -6 0 -9 -3 -5 -6 3 -4 -5 -26
-18 -49 -13 -24 -22 -45 -19 -48 2 -2 -2 -17 -10 -32 -8 -16 -18 -53 -22 -82
-3 -29 -11 -53 -17 -53 -8 0 -8 -3 0 -11 7 -7 8 -22 4 -38 -9 -31 -6 -95 8
-182 6 -34 8 -66 4 -72 -3 -6 -2 -7 4 -4 7 5 26 -45 33 -88 1 -5 6 -16 12 -22
6 -7 7 -13 2 -13 -5 0 -1 -5 9 -11 9 -5 17 -15 17 -21 0 -6 20 -39 45 -73 24
-34 41 -66 37 -70 -4 -3 0 -5 8 -3 9 2 14 -4 14 -14 -1 -10 4 -14 12 -11 8 3
17 -2 20 -11 7 -18 136 -116 153 -116 6 0 11 -7 11 -15 0 -9 6 -12 17 -8 11 4
14 3 9 -5 -5 -8 -1 -10 10 -5 10 3 15 2 12 -3 -4 -5 5 -10 19 -11 14 0 29 -6
33 -13 4 -6 11 -11 16 -11 24 4 102 -24 97 -33 -4 -6 0 -5 9 2 9 7 19 9 22 4
3 -5 56 -10 118 -11 61 -1 116 -5 121 -8 6 -3 7 -1 3 5 -4 7 -4 12 1 13 4 0
26 3 48 6 22 3 52 6 67 7 14 0 26 5 25 10 -1 6 9 10 23 10 14 1 29 7 33 14 5
7 12 10 18 7 5 -4 9 -1 9 4 0 6 7 11 15 11 8 0 15 5 15 11 0 5 5 7 10 4 6 -3
10 -2 10 2 0 5 16 17 36 28 40 21 174 148 174 165 0 5 5 10 10 10 6 0 10 7 10
15 0 8 4 15 9 15 5 0 12 8 15 18 11 30 53 102 57 98 2 -3 5 5 6 17 0 12 8 46
17 75 29 100 37 229 20 327 -4 22 -8 47 -9 55 -1 8 -7 28 -14 43 -6 16 -11 31
-11 34 0 13 -65 141 -87 169 -12 17 -23 35 -23 40 0 5 -9 15 -20 22 -12 7 -19
20 -18 30 2 9 -3 17 -9 18 -7 1 -17 2 -23 3 -18 2 -11 29 16 58 21 23 27 25
35 13 8 -12 9 -11 5 5 -6 24 38 80 56 69 6 -4 9 -3 5 2 -8 14 20 47 34 38 7
-4 10 -3 6 3 -8 13 31 59 47 55 6 -2 8 0 3 4 -9 9 64 84 76 77 4 -2 4 -9 1
-15z"/>
<path d="M3490 3530 c0 -5 5 -10 11 -10 5 0 7 5 4 10 -3 6 -8 10 -11 10 -2 0
-4 -4 -4 -10z"/>
<path d="M1795 3450 c-3 -5 -1 -10 4 -10 6 0 11 5 11 10 0 6 -2 10 -4 10 -3 0
-8 -4 -11 -10z"/>
<path d="M3555 3441 c-3 -5 -2 -12 3 -15 5 -3 9 1 9 9 0 17 -3 19 -12 6z"/>
<path d="M305 2830 c-3 -6 1 -7 9 -4 18 7 21 14 7 14 -6 0 -13 -4 -16 -10z"/>
<path d="M335 2750 c-3 -5 -1 -10 4 -10 6 0 11 5 11 10 0 6 -2 10 -4 10 -3 0
-8 -4 -11 -10z"/>
<path d="M270 2606 c0 -2 8 -10 18 -17 15 -13 16 -12 3 4 -13 16 -21 21 -21
13z"/>
<path d="M334 2566 c1 -8 5 -18 8 -22 4 -3 5 1 4 10 -1 8 -5 18 -8 22 -4 3 -5
-1 -4 -10z"/>
<path d="M5015 2490 c3 -5 8 -10 11 -10 2 0 4 5 4 10 0 6 -5 10 -11 10 -5 0
-7 -4 -4 -10z"/>
<path d="M5016 2372 c-3 -5 1 -9 9 -9 8 0 12 4 9 9 -3 4 -7 8 -9 8 -2 0 -6 -4
-9 -8z"/>
<path d="M5010 2310 c0 -5 5 -10 11 -10 5 0 7 5 4 10 -3 6 -8 10 -11 10 -2 0
-4 -4 -4 -10z"/>
<path d="M5005 2230 c-3 -6 1 -7 9 -4 18 7 21 14 7 14 -6 0 -13 -4 -16 -10z"/>
<path d="M4990 2191 c0 -6 4 -13 10 -16 6 -3 7 1 4 9 -7 18 -14 21 -14 7z"/>
<path d="M315 2150 c3 -5 8 -10 11 -10 2 0 4 5 4 10 0 6 -5 10 -11 10 -5 0 -7
-4 -4 -10z"/>
<path d="M4940 2136 c0 -2 8 -10 18 -17 15 -13 16 -12 3 4 -13 16 -21 21 -21
13z"/>
<path d="M366 2072 c-3 -5 1 -9 9 -9 8 0 12 4 9 9 -3 4 -7 8 -9 8 -2 0 -6 -4
-9 -8z"/>
<path d="M4953 2042 c-1 -22 0 -24 9 -8 6 10 6 22 2 26 -5 5 -10 -3 -11 -18z"/>
<path d="M415 2010 c-3 -5 -1 -10 4 -10 6 0 11 5 11 10 0 6 -2 10 -4 10 -3 0
-8 -4 -11 -10z"/>
<path d="M4916 1997 c3 -10 9 -15 12 -12 3 3 0 11 -7 18 -10 9 -11 8 -5 -6z"/>
<path d="M470 1916 c0 -2 7 -7 16 -10 8 -3 12 -2 9 4 -6 10 -25 14 -25 6z"/>
<path d="M454 1866 c1 -8 5 -18 8 -22 4 -3 5 1 4 10 -1 8 -5 18 -8 22 -4 3 -5
-1 -4 -10z"/>
<path d="M4879 1878 c-5 -18 -6 -38 -1 -34 7 8 12 36 6 36 -2 0 -4 -1 -5 -2z"/>
<path d="M515 1820 c10 -11 20 -20 23 -20 3 0 -3 9 -13 20 -10 11 -20 20 -23
20 -3 0 3 -9 13 -20z"/>
<path d="M4896 1808 c3 -4 11 -5 19 -1 21 7 19 12 -4 10 -11 0 -18 -5 -15 -9z"/>
<path d="M496 1772 c-3 -5 1 -9 9 -9 8 0 12 4 9 9 -3 4 -7 8 -9 8 -2 0 -6 -4
-9 -8z"/>
<path d="M4850 1729 c0 -5 5 -7 10 -4 6 3 10 8 10 11 0 2 -4 4 -10 4 -5 0 -10
-5 -10 -11z"/>
<path d="M465 1710 c-3 -6 1 -7 9 -4 18 7 21 14 7 14 -6 0 -13 -4 -16 -10z"/>
<path d="M533 1655 c0 -8 4 -12 9 -9 5 3 6 10 3 15 -9 13 -12 11 -12 -6z"/>
<path d="M465 1650 c-3 -6 1 -7 9 -4 18 7 21 14 7 14 -6 0 -13 -4 -16 -10z"/>
<path d="M4810 1649 c0 -5 5 -7 10 -4 6 3 10 8 10 11 0 2 -4 4 -10 4 -5 0 -10
-5 -10 -11z"/>
<path d="M4815 1621 c-3 -5 -2 -12 3 -15 5 -3 9 1 9 9 0 17 -3 19 -12 6z"/>
<path d="M609 1593 c-13 -16 -12 -17 4 -4 9 7 17 15 17 17 0 8 -8 3 -21 -13z"/>
<path d="M600 1510 c-9 -6 -10 -10 -3 -10 6 0 15 5 18 10 8 12 4 12 -15 0z"/>
<path d="M4796 1503 c-6 -14 -5 -15 5 -6 7 7 10 15 7 18 -3 3 -9 -2 -12 -12z"/>
<path d="M656 1452 c-3 -5 1 -9 9 -9 8 0 12 4 9 9 -3 4 -7 8 -9 8 -2 0 -6 -4
-9 -8z"/>
<path d="M4650 1446 c0 -2 8 -10 18 -17 15 -13 16 -12 3 4 -13 16 -21 21 -21
13z"/>
<path d="M4639 1428 c-5 -18 -6 -38 -1 -34 7 8 12 36 6 36 -2 0 -4 -1 -5 -2z"/>
<path d="M650 1409 c0 -5 5 -7 10 -4 6 3 10 8 10 11 0 2 -4 4 -10 4 -5 0 -10
-5 -10 -11z"/>
<path d="M736 1392 c-3 -5 1 -9 9 -9 8 0 12 4 9 9 -3 4 -7 8 -9 8 -2 0 -6 -4
-9 -8z"/>
<path d="M635 1361 c-3 -5 -2 -12 3 -15 5 -3 9 1 9 9 0 17 -3 19 -12 6z"/>
<path d="M4570 1327 c0 -2 6 -10 14 -16 11 -9 16 -9 22 1 4 7 4 10 -1 6 -4 -4
-14 -3 -22 3 -7 6 -13 9 -13 6z"/>
<path d="M756 1312 c-3 -5 1 -9 9 -9 8 0 12 4 9 9 -3 4 -7 8 -9 8 -2 0 -6 -4
-9 -8z"/>
<path d="M4535 1289 c-4 -6 -5 -12 -2 -15 2 -3 7 2 10 11 7 17 1 20 -8 4z"/>
<path d="M4556 1283 c-6 -14 -5 -15 5 -6 7 7 10 15 7 18 -3 3 -9 -2 -12 -12z"/>
<path d="M809 1273 c-13 -16 -12 -17 4 -4 9 7 17 15 17 17 0 8 -8 3 -21 -13z"/>
<path d="M735 1270 c-3 -5 -1 -10 4 -10 6 0 11 5 11 10 0 6 -2 10 -4 10 -3 0
-8 -4 -11 -10z"/>
<path d="M4619 1278 c-5 -18 -6 -38 -1 -34 7 8 12 36 6 36 -2 0 -4 -1 -5 -2z"/>
<path d="M4507 1257 c-3 -7 3 -13 14 -13 13 0 15 3 7 13 -6 7 -12 13 -13 13
-2 0 -5 -6 -8 -13z"/>
<path d="M854 1190 c0 -13 4 -16 10 -10 7 7 7 13 0 20 -6 6 -10 3 -10 -10z"/>
<path d="M913 1185 c0 -8 4 -12 9 -9 5 3 6 10 3 15 -9 13 -12 11 -12 -6z"/>
<path d="M4530 1189 c0 -5 5 -7 10 -4 6 3 10 8 10 11 0 2 -4 4 -10 4 -5 0 -10
-5 -10 -11z"/>
<path d="M937 1159 c7 -7 15 -10 18 -7 3 3 -2 9 -12 12 -14 6 -15 5 -6 -5z"/>
<path d="M899 1143 c-12 -16 -12 -17 2 -6 9 7 20 9 24 5 5 -4 5 -1 1 6 -9 16
-11 15 -27 -5z"/>
<path d="M4415 1150 c-3 -5 -1 -10 4 -10 6 0 11 5 11 10 0 6 -2 10 -4 10 -3 0
-8 -4 -11 -10z"/>
<path d="M4586 1148 c3 -5 10 -6 15 -3 13 9 11 12 -6 12 -8 0 -12 -4 -9 -9z"/>
<path d="M945 1130 c-3 -6 1 -7 9 -4 18 7 21 14 7 14 -6 0 -13 -4 -16 -10z"/>
<path d="M981 1114 c0 -11 3 -14 6 -6 3 7 2 16 -1 19 -3 4 -6 -2 -5 -13z"/>
<path d="M780 1116 c0 -2 8 -10 18 -17 15 -13 16 -12 3 4 -13 16 -21 21 -21
13z"/>
<path d="M907 1109 c7 -7 15 -10 18 -7 3 3 -2 9 -12 12 -14 6 -15 5 -6 -5z"/>
<path d="M4453 1105 c0 -8 4 -12 9 -9 4 3 8 9 8 15 0 5 -4 9 -8 9 -5 0 -9 -7
-9 -15z"/>
<path d="M4396 1097 c3 -10 9 -15 12 -12 3 3 0 11 -7 18 -10 9 -11 8 -5 -6z"/>
<path d="M4494 1086 c1 -8 5 -18 8 -22 4 -3 5 1 4 10 -1 8 -5 18 -8 22 -4 3
-5 -1 -4 -10z"/>
<path d="M989 1073 c-13 -17 -13 -17 6 -3 11 8 22 16 24 17 2 2 0 3 -6 3 -6 0
-17 -8 -24 -17z"/>
<path d="M4350 1080 c-8 -5 -12 -12 -9 -15 4 -3 12 1 19 10 14 17 11 19 -10 5z"/>
<path d="M4456 1065 c-9 -26 -7 -32 5 -12 6 10 9 21 6 23 -2 3 -7 -2 -11 -11z"/>
<path d="M975 1039 c-4 -6 -5 -12 -2 -15 2 -3 7 2 10 11 7 17 1 20 -8 4z"/>
<path d="M4353 1037 c0 -8 6 -14 14 -14 9 0 10 4 2 14 -6 7 -12 13 -14 13 -1
0 -2 -6 -2 -13z"/>
<path d="M936 1023 c-6 -14 -5 -15 5 -6 7 7 10 15 7 18 -3 3 -9 -2 -12 -12z"/>
<path d="M1026 1012 c-3 -5 1 -9 9 -9 8 0 12 4 9 9 -3 4 -7 8 -9 8 -2 0 -6 -4
-9 -8z"/>
<path d="M1059 983 c-11 -15 -11 -16 1 -6 11 10 16 9 26 -5 12 -15 12 -15 7 6
-6 27 -16 28 -34 5z"/>
<path d="M1136 957 c3 -10 9 -15 12 -12 3 3 0 11 -7 18 -10 9 -11 8 -5 -6z"/>
<path d="M1056 952 c-3 -5 1 -9 9 -9 8 0 12 4 9 9 -3 4 -7 8 -9 8 -2 0 -6 -4
-9 -8z"/>
<path d="M4260 950 c-8 -5 -10 -10 -5 -10 6 0 17 5 25 10 8 5 11 10 5 10 -5 0
-17 -5 -25 -10z"/>
<path d="M4313 945 c0 -8 4 -12 9 -9 5 3 6 10 3 15 -9 13 -12 11 -12 -6z"/>
<path d="M1110 940 c-9 -6 -10 -10 -3 -10 6 0 15 5 18 10 8 12 4 12 -15 0z"/>
<path d="M1069 913 c-13 -16 -12 -17 4 -4 9 7 17 15 17 17 0 8 -8 3 -21 -13z"/>
<path d="M1141 914 c0 -11 3 -14 6 -6 3 7 2 16 -1 19 -3 4 -6 -2 -5 -13z"/>
<path d="M4195 920 c-3 -6 1 -7 9 -4 18 7 21 14 7 14 -6 0 -13 -4 -16 -10z"/>
<path d="M4233 915 c0 -8 4 -12 9 -9 5 3 6 10 3 15 -9 13 -12 11 -12 -6z"/>
<path d="M4316 903 c-6 -14 -5 -15 5 -6 7 7 10 15 7 18 -3 3 -9 -2 -12 -12z"/>
<path d="M4396 903 c-6 -14 -5 -15 5 -6 7 7 10 15 7 18 -3 3 -9 -2 -12 -12z"/>
<path d="M4148 893 c6 -2 18 -2 25 0 6 3 1 5 -13 5 -14 0 -19 -2 -12 -5z"/>
<path d="M1135 879 c-4 -6 -5 -12 -2 -15 2 -3 7 2 10 11 7 17 1 20 -8 4z"/>
<path d="M4216 877 c3 -10 9 -15 12 -12 3 3 0 11 -7 18 -10 9 -11 8 -5 -6z"/>
<path d="M1230 868 c0 -4 7 -8 15 -8 8 0 15 4 15 8 0 5 -7 9 -15 9 -8 0 -15
-4 -15 -9z"/>
<path d="M4119 873 c0 -5 -2 -16 -4 -26 -2 -11 -1 -16 3 -13 8 8 14 46 7 46
-3 0 -5 -3 -6 -7z"/>
<path d="M4160 875 c0 -2 6 -8 13 -14 10 -8 14 -7 14 2 0 8 -6 14 -14 14 -7 0
-13 -1 -13 -2z"/>
<path d="M1274 830 c-1 -16 1 -30 5 -30 3 0 7 14 7 30 1 17 -1 30 -5 30 -3 0
-7 -13 -7 -30z"/>
<path d="M4245 850 c-3 -6 1 -7 9 -4 18 7 21 14 7 14 -6 0 -13 -4 -16 -10z"/>
<path d="M1213 835 c0 -8 4 -15 9 -15 4 0 8 4 8 9 0 6 -4 12 -8 15 -5 3 -9 -1
-9 -9z"/>
<path d="M4216 837 c3 -10 9 -15 12 -12 3 3 0 11 -7 18 -10 9 -11 8 -5 -6z"/>
<path d="M1136 811 c-3 -5 2 -15 12 -22 15 -12 16 -12 5 2 -7 9 -10 19 -6 22
3 4 4 7 0 7 -3 0 -8 -4 -11 -9z"/>
<path d="M4025 810 c-3 -6 1 -7 9 -4 18 7 21 14 7 14 -6 0 -13 -4 -16 -10z"/>
<path d="M4052 801 c-11 -6 -10 -10 0 -19 11 -8 14 -7 14 9 0 10 0 19 -1 19 0
0 -6 -4 -13 -9z"/>
<path d="M1294 787 c-4 -6 -4 -9 1 -5 4 4 14 3 22 -4 7 -6 15 -9 18 -7 2 3 -4
10 -15 17 -15 9 -21 9 -26 -1z"/>
<path d="M4190 790 c0 -5 5 -10 11 -10 5 0 7 5 4 10 -3 6 -8 10 -11 10 -2 0
-4 -4 -4 -10z"/>
<path d="M1355 780 c-3 -6 1 -7 9 -4 18 7 21 14 7 14 -6 0 -13 -4 -16 -10z"/>
<path d="M1390 770 c0 -5 5 -10 11 -10 5 0 7 5 4 10 -3 6 -8 10 -11 10 -2 0
-4 -4 -4 -10z"/>
<path d="M4110 770 c0 -5 5 -10 11 -10 5 0 7 5 4 10 -3 6 -8 10 -11 10 -2 0
-4 -4 -4 -10z"/>
<path d="M1293 755 c0 -7 5 -13 11 -12 6 1 10 -5 8 -13 -2 -8 0 -11 4 -7 4 4
9 15 10 23 1 9 0 13 -3 10 -4 -3 -11 -1 -18 4 -8 7 -12 5 -12 -5z"/>
<path d="M3952 746 c-9 -19 -8 -24 3 -22 8 1 18 6 22 11 4 4 2 5 -6 0 -10 -6
-12 -2 -6 14 9 28 1 27 -13 -3z"/>
<path d="M1349 733 c-13 -16 -12 -17 3 -5 9 8 23 10 29 6 8 -4 9 -3 5 4 -10
17 -21 15 -37 -5z"/>
<path d="M4090 729 c0 -5 5 -7 10 -4 6 3 10 8 10 11 0 2 -4 4 -10 4 -5 0 -10
-5 -10 -11z"/>
<path d="M4135 729 c-3 -4 2 -6 10 -5 21 3 28 13 10 13 -9 0 -18 -4 -20 -8z"/>
<path d="M1418 718 c5 -5 16 -8 23 -6 8 3 3 7 -10 11 -17 4 -21 3 -13 -5z"/>
<path d="M1491 704 c0 -11 3 -14 6 -6 3 7 2 16 -1 19 -3 4 -6 -2 -5 -13z"/>
<path d="M3880 700 c6 -11 12 -20 14 -20 2 0 2 9 -1 20 -3 11 -9 20 -15 20 -5
0 -4 -9 2 -20z"/>
<path d="M1391 697 c-8 -10 -7 -14 2 -14 8 0 14 6 14 14 0 7 -1 13 -2 13 -2 0
-8 -6 -14 -13z"/>
<path d="M3951 683 c7 -12 15 -20 18 -17 3 2 -3 12 -13 22 -17 16 -18 16 -5
-5z"/>
<path d="M3993 679 c-2 -23 3 -25 10 -4 4 8 3 16 -1 19 -4 3 -9 -4 -9 -15z"/>
<path d="M1219 663 c-13 -16 -12 -17 4 -4 9 7 17 15 17 17 0 8 -8 3 -21 -13z"/>
<path d="M1556 648 c5 -7 2 -9 -7 -6 -10 4 -15 -1 -15 -13 0 -17 1 -17 21 -1
11 9 21 17 23 18 2 1 -4 4 -13 8 -11 4 -14 2 -9 -6z"/>
<path d="M3815 651 c-3 -5 9 -16 26 -25 26 -13 29 -13 19 -1 -7 8 -19 15 -27
15 -8 0 -11 5 -8 10 3 6 4 10 1 10 -3 0 -7 -4 -11 -9z"/>
<path d="M3873 643 c0 -9 4 -10 14 -2 7 6 13 12 13 14 0 1 -6 2 -13 2 -8 0
-14 -6 -14 -14z"/>
<path d="M1626 625 c4 -8 11 -15 16 -15 6 0 5 6 -2 15 -7 8 -14 15 -16 15 -2
0 -1 -7 2 -15z"/>
<path d="M3990 630 c0 -5 5 -10 11 -10 5 0 7 5 4 10 -3 6 -8 10 -11 10 -2 0
-4 -4 -4 -10z"/>
<path d="M3795 621 c-3 -5 -2 -12 3 -15 5 -3 9 1 9 9 0 17 -3 19 -12 6z"/>
<path d="M1415 610 c3 -5 8 -10 11 -10 2 0 4 5 4 10 0 6 -5 10 -11 10 -5 0 -7
-4 -4 -10z"/>
<path d="M1466 608 c3 -4 9 -8 15 -8 5 0 9 4 9 8 0 5 -7 9 -15 9 -8 0 -12 -4
-9 -9z"/>
<path d="M3930 610 c0 -5 5 -10 11 -10 5 0 7 5 4 10 -3 6 -8 10 -11 10 -2 0
-4 -4 -4 -10z"/>
<path d="M3750 603 c5 -2 8 -9 5 -13 -3 -5 -1 -11 4 -14 5 -4 8 2 7 11 -2 9
-8 18 -15 19 -6 1 -7 0 -1 -3z"/>
<path d="M1607 590 c7 -8 63 -8 63 0 0 4 -15 6 -34 6 -19 -1 -32 -3 -29 -6z"/>
<path d="M1716 583 c-6 -14 -5 -15 5 -6 7 7 10 15 7 18 -3 3 -9 -2 -12 -12z"/>
<path d="M3635 591 c-3 -6 5 -15 17 -21 21 -10 21 -10 6 3 -10 8 -15 17 -11
20 3 4 4 7 0 7 -3 0 -8 -4 -12 -9z"/>
<path d="M3660 596 c0 -2 8 -10 18 -17 15 -13 16 -12 3 4 -13 16 -21 21 -21
13z"/>
<path d="M1679 578 c-6 -21 -5 -37 2 -32 5 3 7 9 4 14 -3 4 1 11 7 13 10 4 10
6 1 6 -7 1 -13 0 -14 -1z"/>
<path d="M1735 571 c-3 -5 0 -13 6 -17 7 -4 9 -3 5 4 -3 6 2 13 11 15 16 4 16
5 1 6 -9 0 -19 -3 -23 -8z"/>
<path d="M3708 573 c6 -3 10 -9 6 -14 -8 -14 2 -11 14 4 8 10 6 13 -11 14 -12
0 -16 -1 -9 -4z"/>
<path d="M3780 576 c0 -2 8 -10 18 -17 15 -13 16 -12 3 4 -13 16 -21 21 -21
13z"/>
<path d="M3573 555 c-3 -9 -3 -18 -1 -21 3 -3 8 4 11 16 6 23 -1 27 -10 5z"/>
<path d="M1466 548 c3 -5 10 -6 15 -3 13 9 11 12 -6 12 -8 0 -12 -4 -9 -9z"/>
<path d="M1770 556 c0 -2 7 -7 16 -10 8 -3 12 -2 9 4 -6 10 -25 14 -25 6z"/>
<path d="M1811 544 c0 -11 3 -14 6 -6 3 7 2 16 -1 19 -3 4 -6 -2 -5 -13z"/>
<path d="M3636 545 c-9 -26 -7 -32 5 -12 6 10 9 21 6 23 -2 3 -7 -2 -11 -11z"/>
<path d="M3736 543 c-6 -14 -5 -15 5 -6 7 7 10 15 7 18 -3 3 -9 -2 -12 -12z"/>
<path d="M1719 548 c-5 -18 -6 -38 -1 -34 7 8 12 36 6 36 -2 0 -4 -1 -5 -2z"/>
<path d="M1535 529 c-3 -4 2 -6 10 -5 21 3 28 13 10 13 -9 0 -18 -4 -20 -8z"/>
<path d="M1830 528 c0 -6 7 -8 15 -4 9 3 15 0 15 -9 0 -8 5 -15 11 -15 5 0 7
-5 3 -12 -4 -7 -3 -8 5 -4 8 5 7 13 -4 29 -15 22 -45 32 -45 15z"/>
<path d="M1770 520 c-9 -6 -10 -10 -3 -10 6 0 15 5 18 10 8 12 4 12 -15 0z"/>
<path d="M3506 513 c-4 -9 -4 -14 0 -10 4 4 13 -1 21 -11 12 -15 13 -14 2 8
-16 33 -16 33 -23 13z"/>
<path d="M3653 515 c0 -8 3 -13 5 -10 3 3 10 0 17 -5 8 -7 12 -5 12 5 0 8 -3
13 -5 10 -3 -3 -10 0 -17 5 -8 7 -12 5 -12 -5z"/>
<path d="M1791 502 c-7 -14 -6 -19 4 -19 8 0 11 7 7 16 -5 14 -4 14 14 1 18
-14 18 -14 5 3 -17 21 -18 21 -30 -1z"/>
<path d="M3472 500 c7 -10 14 -18 15 -16 6 6 -9 36 -18 36 -5 0 -4 -9 3 -20z"/>
<path d="M1956 497 c3 -10 9 -15 12 -12 3 3 0 11 -7 18 -10 9 -11 8 -5 -6z"/>
<path d="M1934 492 c6 -11 -12 -17 -36 -13 -5 0 -8 -4 -8 -9 0 -6 11 -8 26 -4
21 6 25 4 19 -7 -5 -8 -4 -10 0 -6 13 12 15 36 3 44 -7 3 -8 1 -4 -5z"/>
<path d="M3453 493 c4 -6 2 -13 -5 -15 -16 -6 -18 -35 -2 -35 11 0 11 3 1 16
-10 12 -9 14 5 9 17 -7 20 14 3 29 -4 4 -5 3 -2 -4z"/>
<path d="M3560 490 c-9 -6 -10 -10 -3 -10 6 0 15 5 18 10 8 12 4 12 -15 0z"/>
<path d="M3350 480 c0 -6 7 -10 15 -10 8 0 15 2 15 4 0 2 -7 6 -15 10 -8 3
-15 1 -15 -4z"/>
<path d="M3396 477 c3 -10 9 -15 12 -12 3 3 0 11 -7 18 -10 9 -11 8 -5 -6z"/>
<path d="M1835 470 c3 -5 8 -10 11 -10 2 0 4 5 4 10 0 6 -5 10 -11 10 -5 0 -7
-4 -4 -10z"/>
<path d="M2027 463 c3 -7 6 -13 8 -13 2 0 5 6 8 13 3 8 -1 14 -8 14 -7 0 -11
-6 -8 -14z"/>
<path d="M3625 470 c-3 -6 1 -7 9 -4 18 7 21 14 7 14 -6 0 -13 -4 -16 -10z"/>
<path d="M3706 468 c3 -5 10 -6 15 -3 13 9 11 12 -6 12 -8 0 -12 -4 -9 -9z"/>
<path d="M1986 453 c-6 -14 -5 -15 5 -6 7 7 10 15 7 18 -3 3 -9 -2 -12 -12z"/>
<path d="M3270 459 c-12 -8 -10 -9 9 -4 17 5 22 4 16 -5 -5 -9 -4 -11 4 -6 6
4 9 12 6 17 -8 12 -16 11 -35 -2z"/>
<path d="M2094 452 c3 -5 0 -13 -6 -15 -9 -4 -10 -6 -1 -6 17 -1 25 16 12 25
-7 4 -9 3 -5 -4z"/>
<path d="M3336 452 c-2 -4 -1 -14 3 -21 6 -9 11 -10 15 -2 4 6 2 11 -4 11 -6
0 -8 5 -5 10 3 6 4 10 1 10 -3 0 -7 -4 -10 -8z"/>
<path d="M2144 436 c-10 -8 -17 -16 -14 -19 3 -2 14 4 24 14 23 22 18 25 -10
5z"/>
<path d="M3224 436 c-10 -8 -17 -16 -14 -19 3 -2 14 4 24 14 23 22 18 25 -10
5z"/>
<path d="M1950 429 c0 -5 5 -7 10 -4 6 3 10 8 10 11 0 2 -4 4 -10 4 -5 0 -10
-5 -10 -11z"/>
<path d="M3155 429 c-11 -16 -1 -19 13 -3 7 8 8 14 3 14 -5 0 -13 -5 -16 -11z"/>
<path d="M3274 425 c1 -8 6 -18 11 -22 4 -5 5 -2 0 6 -6 11 -4 13 8 8 23 -9
21 0 -2 13 -15 7 -19 7 -17 -5z"/>
<path d="M1815 410 c3 -5 8 -10 11 -10 2 0 4 5 4 10 0 6 -5 10 -11 10 -5 0 -7
-4 -4 -10z"/>
<path d="M1959 403 c-13 -16 -12 -17 4 -4 16 13 21 21 13 21 -2 0 -10 -8 -17
-17z"/>
<path d="M2020 414 c0 -1 8 -8 17 -15 9 -8 14 -9 10 -2 -4 6 -1 13 5 16 7 3 3
4 -9 4 -13 -1 -23 -2 -23 -3z"/>
<path d="M2150 413 c0 -6 8 -17 18 -24 16 -13 16 -13 2 6 -8 11 -16 22 -17 24
-2 2 -3 0 -3 -6z"/>
<path d="M2212 415 c4 -4 0 -13 -8 -20 -15 -11 -15 -12 -1 -12 20 0 30 24 14
33 -7 4 -9 4 -5 -1z"/>
<path d="M2270 408 c0 -4 6 -8 14 -8 8 0 17 4 20 8 2 4 -4 8 -15 8 -10 0 -19
-4 -19 -8z"/>
<path d="M3070 410 c0 -5 5 -10 10 -10 6 0 10 5 10 10 0 6 -4 10 -10 10 -5 0
-10 -4 -10 -10z"/>
<path d="M3230 413 c0 -13 17 -26 38 -29 6 -1 10 2 6 7 -3 5 -9 7 -14 4 -5 -3
-13 3 -19 12 -6 10 -11 13 -11 6z"/>
<path d="M3360 410 c-9 -6 -10 -10 -3 -10 6 0 15 5 18 10 8 12 4 12 -15 0z"/>
<path d="M3395 412 c3 -3 0 -10 -5 -17 -7 -8 -5 -12 5 -12 8 0 13 3 10 5 -3 3
0 10 5 17 7 8 5 12 -5 12 -8 0 -13 -3 -10 -5z"/>
<path d="M3530 409 c0 -5 5 -7 10 -4 6 3 10 8 10 11 0 2 -4 4 -10 4 -5 0 -10
-5 -10 -11z"/>
<path d="M2366 393 c-4 -9 -2 -21 4 -27 8 -8 9 -6 4 8 -5 13 -4 17 4 12 8 -5
10 -2 6 8 -8 20 -10 20 -18 -1z"/>
<path d="M3031 404 c-1 -5 6 -19 14 -30 15 -18 15 -18 8 0 -5 14 -3 17 7 11 9
-5 11 -4 6 4 -4 6 -11 9 -16 6 -4 -3 -11 1 -13 7 -3 7 -6 8 -6 2z"/>
<path d="M1990 396 c0 -2 7 -7 16 -10 8 -3 12 -2 9 4 -6 10 -25 14 -25 6z"/>
<path d="M2130 391 c0 -6 4 -13 10 -16 6 -3 7 1 4 9 -7 18 -14 21 -14 7z"/>
<path d="M2239 383 c-13 -16 -12 -17 4 -4 16 13 21 21 13 21 -2 0 -10 -8 -17
-17z"/>
<path d="M2310 390 c0 -5 7 -7 15 -4 8 4 15 8 15 10 0 2 -7 4 -15 4 -8 0 -15
-4 -15 -10z"/>
<path d="M2416 385 c4 -8 8 -15 10 -15 2 0 4 7 4 15 0 8 -4 15 -10 15 -5 0 -7
-7 -4 -15z"/>
<path d="M2450 389 c0 -5 5 -7 10 -4 6 3 10 8 10 11 0 2 -4 4 -10 4 -5 0 -10
-5 -10 -11z"/>
<path d="M3109 376 c-9 -18 -8 -19 3 -5 7 9 19 14 26 12 6 -3 12 -1 12 5 0 17
-31 8 -41 -12z"/>
<path d="M3160 396 c0 -2 7 -9 15 -16 13 -11 14 -10 9 4 -5 14 -24 23 -24 12z"/>
<path d="M3313 380 c1 -21 10 -18 13 5 1 8 -2 15 -6 15 -5 0 -8 -9 -7 -20z"/>
<path d="M2475 379 c-4 -6 -5 -12 -2 -15 2 -3 7 2 10 11 7 17 1 20 -8 4z"/>
<path d="M2496 373 c-6 -14 -5 -15 5 -6 7 7 10 15 7 18 -3 3 -9 -2 -12 -12z"/>
<path d="M2630 379 c0 -5 5 -7 10 -4 6 3 10 8 10 11 0 2 -4 4 -10 4 -5 0 -10
-5 -10 -11z"/>
<path d="M2700 383 c0 -6 -8 -9 -19 -6 -26 7 -35 -12 -13 -28 16 -13 16 -13 2
5 -14 18 -13 19 7 14 22 -6 41 7 29 19 -3 4 -6 2 -6 -4z"/>
<path d="M2888 383 c6 -2 9 -10 6 -15 -4 -7 -2 -8 5 -4 13 9 5 26 -12 25 -9 0
-8 -2 1 -6z"/>
<path d="M1930 369 c0 -5 5 -7 10 -4 6 3 10 8 10 11 0 2 -4 4 -10 4 -5 0 -10
-5 -10 -11z"/>
<path d="M2275 370 c6 -10 4 -12 -11 -6 -15 6 -17 5 -6 -5 9 -9 15 -10 23 -2
8 8 7 13 -2 18 -8 6 -10 4 -4 -5z"/>
<path d="M2396 365 c-9 -26 -7 -32 5 -12 6 10 9 21 6 23 -2 3 -7 -2 -11 -11z"/>
<path d="M2750 371 c0 -6 8 -7 18 -4 15 6 15 5 3 -11 -11 -13 -12 -19 -2 -29
10 -9 11 -8 5 7 -5 13 -4 17 3 13 7 -4 10 0 9 10 -3 19 -36 32 -36 14z"/>
<path d="M2934 365 c-4 -8 -11 -12 -18 -8 -6 3 -8 3 -4 -2 4 -4 3 -13 -2 -20
-7 -8 -5 -12 5 -12 8 0 11 5 8 10 -4 6 0 8 8 5 10 -4 14 2 14 18 0 28 -3 30
-11 9z"/>
<path d="M2993 373 c4 -3 -1 -16 -10 -27 -17 -20 -17 -20 1 -6 18 13 19 13 14
-1 -4 -9 -1 -16 7 -16 9 0 11 6 6 16 -5 9 -6 22 -4 29 3 6 -1 12 -8 12 -7 0
-9 -3 -6 -7z"/>
<path d="M3510 369 c0 -5 5 -7 10 -4 6 3 10 8 10 11 0 2 -4 4 -10 4 -5 0 -10
-5 -10 -11z"/>
<path d="M2009 353 c-13 -16 -12 -17 4 -4 16 13 21 21 13 21 -2 0 -10 -8 -17
-17z"/>
<path d="M2450 361 c0 -6 4 -13 10 -16 6 -3 7 1 4 9 -7 18 -14 21 -14 7z"/>
<path d="M2830 363 c5 -2 8 -9 4 -14 -3 -5 0 -9 6 -9 15 0 7 23 -8 26 -7 1 -8
0 -2 -3z"/>
<path d="M3075 359 c-4 -6 -5 -12 -2 -15 2 -3 7 2 10 11 7 17 1 20 -8 4z"/>
<path d="M2506 352 c-3 -5 1 -9 9 -9 8 0 15 4 15 9 0 4 -4 8 -9 8 -6 0 -12 -4
-15 -8z"/>
<path d="M2610 350 c0 -5 5 -10 10 -10 6 0 10 5 10 10 0 6 -4 10 -10 10 -5 0
-10 -4 -10 -10z"/>
<path d="M2713 340 c1 -11 5 -20 9 -20 3 0 6 9 5 20 -1 11 -5 20 -9 20 -3 0
-6 -9 -5 -20z"/>
<path d="M3550 350 c0 -5 5 -10 11 -10 5 0 7 5 4 10 -3 6 -8 10 -11 10 -2 0
-4 -4 -4 -10z"/>
<path d="M1955 329 c-3 -4 2 -6 10 -5 21 3 28 13 10 13 -9 0 -18 -4 -20 -8z"/>
<path d="M2323 328 c-11 -19 -13 -39 -1 -32 5 3 7 9 4 12 -3 3 -1 11 5 19 6 7
9 13 6 13 -3 0 -9 -6 -14 -12z"/>
<path d="M2354 310 c0 -16 3 -27 6 -25 8 5 6 42 -1 50 -3 2 -5 -8 -5 -25z"/>
<path d="M2556 331 c-3 -4 4 -17 17 -27 22 -19 22 -19 4 2 -9 11 -14 24 -10
27 3 4 4 7 0 7 -3 0 -8 -4 -11 -9z"/>
<path d="M2800 330 c-9 -6 -10 -10 -3 -10 6 0 15 5 18 10 8 12 4 12 -15 0z"/>
<path d="M3395 331 c-3 -5 -2 -12 3 -15 5 -3 9 1 9 9 0 17 -3 19 -12 6z"/>
<path d="M2451 317 c-8 -10 -7 -14 2 -14 8 0 14 6 14 14 0 7 -1 13 -2 13 -2 0
-8 -6 -14 -13z"/>
<path d="M3096 317 c3 -10 9 -15 12 -12 3 3 0 11 -7 18 -10 9 -11 8 -5 -6z"/>
<path d="M2406 312 c-3 -5 1 -9 9 -9 8 0 15 4 15 9 0 4 -4 8 -9 8 -6 0 -12 -4
-15 -8z"/>
<path d="M2935 311 c-3 -5 -2 -12 3 -15 5 -3 9 1 9 9 0 17 -3 19 -12 6z"/>
<path d="M3156 308 c3 -5 10 -6 15 -3 13 9 11 12 -6 12 -8 0 -12 -4 -9 -9z"/>
<path d="M3196 303 c-6 -14 -5 -15 5 -6 7 7 10 15 7 18 -3 3 -9 -2 -12 -12z"/>
<path d="M2179 298 c-5 -18 -6 -38 -1 -34 7 8 12 36 6 36 -2 0 -4 -1 -5 -2z"/>
<path d="M2510 288 c0 -4 4 -8 9 -8 6 0 12 4 15 8 3 5 -1 9 -9 9 -8 0 -15 -4
-15 -9z"/>
<path d="M2773 275 c0 -8 4 -12 9 -9 5 3 6 10 3 15 -9 13 -12 11 -12 -6z"/>
<path d="M2815 279 c-4 -6 -5 -12 -2 -15 2 -3 7 2 10 11 7 17 1 20 -8 4z"/>
<path d="M2070 270 c0 -5 5 -10 11 -10 5 0 7 5 4 10 -3 6 -8 10 -11 10 -2 0
-4 -4 -4 -10z"/>
<path d="M2316 263 c-6 -14 -5 -15 5 -6 7 7 10 15 7 18 -3 3 -9 -2 -12 -12z"/>
<path d="M2977 265 c-4 -8 -3 -16 1 -19 4 -3 9 4 9 15 2 23 -3 25 -10 4z"/>
<path d="M3010 269 c0 -5 5 -7 10 -4 6 3 10 8 10 11 0 2 -4 4 -10 4 -5 0 -10
-5 -10 -11z"/>
<path d="M3245 270 c-3 -6 1 -7 9 -4 18 7 21 14 7 14 -6 0 -13 -4 -16 -10z"/>
<path d="M2410 249 c0 -5 5 -7 10 -4 6 3 10 8 10 11 0 2 -4 4 -10 4 -5 0 -10
-5 -10 -11z"/>
<path d="M2615 250 c3 -5 8 -10 11 -10 2 0 4 5 4 10 0 6 -5 10 -11 10 -5 0 -7
-4 -4 -10z"/>
<path d="M2200 236 c0 -2 8 -10 18 -17 15 -13 16 -12 3 4 -13 16 -21 21 -21
13z"/>
</g>
</svg>
